# xmcd
#
# Track frame offsets:
#	150
#	20035
#	38832
#	56997
#	75905
#	100512
#	114627
#	132980
#	148262
#	161387
#	177847
#	194632
#
# Disc length: 2920 seconds
#
# Revision: 0
# Processed by: cddbd v1.5PL3 Copyright (c) Steve Scherf et al.
# Submitted via: MusicManager 7.0.3.0 
#
DISCID=a30b660c
DTITLE=Glenmark Eriksson Strömstedt - Den andra skivan
DYEAR=2003
DGENRE=rock
TTITLE0=Händerna på täcket
TTITLE1=Sängerna om sommaren
TTITLE2=Handen på hjärtat
TTITLE3=Den andra kvinnan
TTITLE4=Utantill
TTITLE5=Lika bra som jag
TTITLE6=Den stora kärleken
TTITLE7=Vin och rosor
TTITLE8=Inga kvinnor kvar
TTITLE9=Dom kommer och dom går
TTITLE10=Hun vet vad hon vill ha
TTITLE11=Tar gud american express?
EXTD=
EXTT0=
EXTT1=
EXTT2=
EXTT3=
EXTT4=
EXTT5=
EXTT6=
EXTT7=
EXTT8=
EXTT9=
EXTT10=
EXTT11=
PLAYORDER=
